<svg height="210" viewBox="0 0 340 210" width="340" xmlns="http://www.w3.org/2000/svg"><rect fill="#ff6b6b" height="10" i="0" width="10" x="90" y="50"></rect><rect fill="#ff9f1c" height="10" i="1" width="10" x="80" y="50"></rect><rect fill="#ffd93d" height="20" i="2" width="20" x="80" y="60"></rect><rect fill="#aacc00" height="30" i="3" width="30" x="100" y="50"></rect><rect fill="#6bcb77" height="50" i="4" width="50" x="80" y="0"></rect><rect fill="#4ecdc4" height="80" i="5" width="80" x="0" y="0"></rect><rect fill="#4d96ff" height="130" i="6" width="130" x="0" y="80"></rect><rect fill="#9b5de5" height="210" i="7" width="210" x="130" y="0"></rect><path d="M 100 60 A 10 10 0 0 0 90 50" fill="none" i="0" stroke="white" stroke-width="3"></path><path d="M 90 50 A 10 10 0 0 0 80 60" fill="none" i="1" stroke="white" stroke-width="3"></path><path d="M 80 60 A 20 20 0 0 0 100 80" fill="none" i="2" stroke="white" stroke-width="3"></path><path d="M 100 80 A 30 30 0 0 0 130 50" fill="none" i="3" stroke="white" stroke-width="3"></path><path d="M 130 50 A 50 50 0 0 0 80 0" fill="none" i="4" stroke="white" stroke-width="3"></path><path d="M 80 0 A 80 80 0 0 0 0 80" fill="none" i="5" stroke="white" stroke-width="3"></path><path d="M 0 80 A 130 130 0 0 0 130 210" fill="none" i="6" stroke="white" stroke-width="3"></path><path d="M 130 210 A 210 210 0 0 0 340 0" fill="none" i="7" stroke="white" stroke-width="3"></path><text fill="black" font-family="Arial" font-size="16" x="92" y="58">1</text><text fill="black" font-family="Arial" font-size="16" x="82" y="58">1</text><text fill="black" font-family="Arial" font-size="16" x="87" y="73">2</text><text fill="black" font-family="Arial" font-size="16" x="112" y="68">3</text><text fill="black" font-family="Arial" font-size="16" x="102" y="28">5</text><text fill="black" font-family="Arial" font-size="16" x="37" y="43">8</text><text fill="black" font-family="Arial" font-size="16" x="62" y="148">13</text><text fill="black" font-family="Arial" font-size="16" x="232" y="108">21</text></svg>