<svg height="3770" viewBox="0 0 2330 3770" width="2330" xmlns="http://www.w3.org/2000/svg"><rect fill="#ff6b6b" height="10" i="0" width="10" x="640" y="2720"></rect><rect fill="#ff9f1c" height="10" i="1" width="10" x="630" y="2720"></rect><rect fill="#ffd93d" height="20" i="2" width="20" x="630" y="2730"></rect><rect fill="#aacc00" height="30" i="3" width="30" x="650" y="2720"></rect><rect fill="#6bcb77" height="50" i="4" width="50" x="630" y="2670"></rect><rect fill="#4ecdc4" height="80" i="5" width="80" x="550" y="2670"></rect><rect fill="#4d96ff" height="130" i="6" width="130" x="550" y="2750"></rect><rect fill="#9b5de5" height="210" i="7" width="210" x="680" y="2670"></rect><rect fill="#f15bb5" height="340" i="8" width="340" x="550" y="2330"></rect><rect fill="#00bbf9" height="550" i="9" width="550" x="0" y="2330"></rect><rect fill="#ff6b6b" height="890" i="10" width="890" x="0" y="2880"></rect><rect fill="#ff9f1c" height="1440" i="11" width="1440" x="890" y="2330"></rect><rect fill="#ffd93d" height="2330" i="12" width="2330" x="0" y="0"></rect><path d="M 650 2730 A 10 10 0 0 0 640 2720" fill="none" i="0" stroke="white" stroke-width="3"></path><path d="M 640 2720 A 10 10 0 0 0 630 2730" fill="none" i="1" stroke="white" stroke-width="3"></path><path d="M 630 2730 A 20 20 0 0 0 650 2750" fill="none" i="2" stroke="white" stroke-width="3"></path><path d="M 650 2750 A 30 30 0 0 0 680 2720" fill="none" i="3" stroke="white" stroke-width="3"></path><path d="M 680 2720 A 50 50 0 0 0 630 2670" fill="none" i="4" stroke="white" stroke-width="3"></path><path d="M 630 2670 A 80 80 0 0 0 550 2750" fill="none" i="5" stroke="white" stroke-width="3"></path><path d="M 550 2750 A 130 130 0 0 0 680 2880" fill="none" i="6" stroke="white" stroke-width="3"></path><path d="M 680 2880 A 210 210 0 0 0 890 2670" fill="none" i="7" stroke="white" stroke-width="3"></path><path d="M 890 2670 A 340 340 0 0 0 550 2330" fill="none" i="8" stroke="white" stroke-width="3"></path><path d="M 550 2330 A 550 550 0 0 0 0 2880" fill="none" i="9" stroke="white" stroke-width="3"></path><path d="M 0 2880 A 890 890 0 0 0 890 3770" fill="none" i="10" stroke="white" stroke-width="3"></path><path d="M 890 3770 A 1440 1440 0 0 0 2330 2330" fill="none" i="11" stroke="white" stroke-width="3"></path><path d="M 2330 2330 A 2330 2330 0 0 0 0 0" fill="none" i="12" stroke="white" stroke-width="3"></path><text fill="black" font-family="Arial" font-size="16" x="642" y="2728">1</text><text fill="black" font-family="Arial" font-size="16" x="632" y="2728">1</text><text fill="black" font-family="Arial" font-size="16" x="637" y="2743">2</text><text fill="black" font-family="Arial" font-size="16" x="662" y="2738">3</text><text fill="black" font-family="Arial" font-size="16" x="652" y="2698">5</text><text fill="black" font-family="Arial" font-size="16" x="587" y="2713">8</text><text fill="black" font-family="Arial" font-size="16" x="612" y="2818">13</text><text fill="black" font-family="Arial" font-size="16" x="782" y="2778">21</text><text fill="black" font-family="Arial" font-size="16" x="717" y="2503">34</text><text fill="black" font-family="Arial" font-size="16" x="272" y="2608">55</text><text fill="black" font-family="Arial" font-size="16" x="442" y="3328">89</text><text fill="black" font-family="Arial" font-size="16" x="1607" y="3053">144</text><text fill="black" font-family="Arial" font-size="16" x="1162" y="1168">233</text></svg>