<svg height="550" viewBox="0 0 340 550" width="340" xmlns="http://www.w3.org/2000/svg"><rect fill="#ff6b6b" height="10" i="0" width="10" x="90" y="390"></rect><rect fill="#ff9f1c" height="10" i="1" width="10" x="80" y="390"></rect><rect fill="#ffd93d" height="20" i="2" width="20" x="80" y="400"></rect><rect fill="#aacc00" height="30" i="3" width="30" x="100" y="390"></rect><rect fill="#6bcb77" height="50" i="4" width="50" x="80" y="340"></rect><rect fill="#4ecdc4" height="80" i="5" width="80" x="0" y="340"></rect><rect fill="#4d96ff" height="130" i="6" width="130" x="0" y="420"></rect><rect fill="#9b5de5" height="210" i="7" width="210" x="130" y="340"></rect><rect fill="#f15bb5" height="340" i="8" width="340" x="0" y="0"></rect><path d="M 100 400 A 10 10 0 0 0 90 390" fill="none" i="0" stroke="white" stroke-width="3"></path><path d="M 90 390 A 10 10 0 0 0 80 400" fill="none" i="1" stroke="white" stroke-width="3"></path><path d="M 80 400 A 20 20 0 0 0 100 420" fill="none" i="2" stroke="white" stroke-width="3"></path><path d="M 100 420 A 30 30 0 0 0 130 390" fill="none" i="3" stroke="white" stroke-width="3"></path><path d="M 130 390 A 50 50 0 0 0 80 340" fill="none" i="4" stroke="white" stroke-width="3"></path><path d="M 80 340 A 80 80 0 0 0 0 420" fill="none" i="5" stroke="white" stroke-width="3"></path><path d="M 0 420 A 130 130 0 0 0 130 550" fill="none" i="6" stroke="white" stroke-width="3"></path><path d="M 130 550 A 210 210 0 0 0 340 340" fill="none" i="7" stroke="white" stroke-width="3"></path><path d="M 340 340 A 340 340 0 0 0 0 0" fill="none" i="8" stroke="white" stroke-width="3"></path><text fill="black" font-family="Arial" font-size="16" x="92" y="398">1</text><text fill="black" font-family="Arial" font-size="16" x="82" y="398">1</text><text fill="black" font-family="Arial" font-size="16" x="87" y="413">2</text><text fill="black" font-family="Arial" font-size="16" x="112" y="408">3</text><text fill="black" font-family="Arial" font-size="16" x="102" y="368">5</text><text fill="black" font-family="Arial" font-size="16" x="37" y="383">8</text><text fill="black" font-family="Arial" font-size="16" x="62" y="488">13</text><text fill="black" font-family="Arial" font-size="16" x="232" y="448">21</text><text fill="black" font-family="Arial" font-size="16" x="167" y="173">34</text></svg>