<svg height="30" viewBox="0 0 50 30" width="50" xmlns="http://www.w3.org/2000/svg"><rect fill="#ff6b6b" height="10" i="0" width="10" x="10" y="0"></rect><rect fill="#ff9f1c" height="10" i="1" width="10" x="0" y="0"></rect><rect fill="#ffd93d" height="20" i="2" width="20" x="0" y="10"></rect><rect fill="#aacc00" height="30" i="3" width="30" x="20" y="0"></rect><path d="M 20 10 A 10 10 0 0 0 10 0" fill="none" i="0" stroke="white" stroke-width="3"></path><path d="M 10 0 A 10 10 0 0 0 0 10" fill="none" i="1" stroke="white" stroke-width="3"></path><path d="M 0 10 A 20 20 0 0 0 20 30" fill="none" i="2" stroke="white" stroke-width="3"></path><path d="M 20 30 A 30 30 0 0 0 50 0" fill="none" i="3" stroke="white" stroke-width="3"></path><text fill="black" font-family="Arial" font-size="16" x="12" y="8">1</text><text fill="black" font-family="Arial" font-size="16" x="2" y="8">1</text><text fill="black" font-family="Arial" font-size="16" x="7" y="23">2</text><text fill="black" font-family="Arial" font-size="16" x="32" y="18">3</text></svg>