<svg height="1440" viewBox="0 0 890 1440" width="890" xmlns="http://www.w3.org/2000/svg"><rect fill="#ff6b6b" height="10" i="0" width="10" x="640" y="390"></rect><rect fill="#ff9f1c" height="10" i="1" width="10" x="630" y="390"></rect><rect fill="#ffd93d" height="20" i="2" width="20" x="630" y="400"></rect><rect fill="#aacc00" height="30" i="3" width="30" x="650" y="390"></rect><rect fill="#6bcb77" height="50" i="4" width="50" x="630" y="340"></rect><rect fill="#4ecdc4" height="80" i="5" width="80" x="550" y="340"></rect><rect fill="#4d96ff" height="130" i="6" width="130" x="550" y="420"></rect><rect fill="#9b5de5" height="210" i="7" width="210" x="680" y="340"></rect><rect fill="#f15bb5" height="340" i="8" width="340" x="550" y="0"></rect><rect fill="#00bbf9" height="550" i="9" width="550" x="0" y="0"></rect><rect fill="#ff6b6b" height="890" i="10" width="890" x="0" y="550"></rect><path d="M 650 400 A 10 10 0 0 0 640 390" fill="none" i="0" stroke="white" stroke-width="3"></path><path d="M 640 390 A 10 10 0 0 0 630 400" fill="none" i="1" stroke="white" stroke-width="3"></path><path d="M 630 400 A 20 20 0 0 0 650 420" fill="none" i="2" stroke="white" stroke-width="3"></path><path d="M 650 420 A 30 30 0 0 0 680 390" fill="none" i="3" stroke="white" stroke-width="3"></path><path d="M 680 390 A 50 50 0 0 0 630 340" fill="none" i="4" stroke="white" stroke-width="3"></path><path d="M 630 340 A 80 80 0 0 0 550 420" fill="none" i="5" stroke="white" stroke-width="3"></path><path d="M 550 420 A 130 130 0 0 0 680 550" fill="none" i="6" stroke="white" stroke-width="3"></path><path d="M 680 550 A 210 210 0 0 0 890 340" fill="none" i="7" stroke="white" stroke-width="3"></path><path d="M 890 340 A 340 340 0 0 0 550 0" fill="none" i="8" stroke="white" stroke-width="3"></path><path d="M 550 0 A 550 550 0 0 0 0 550" fill="none" i="9" stroke="white" stroke-width="3"></path><path d="M 0 550 A 890 890 0 0 0 890 1440" fill="none" i="10" stroke="white" stroke-width="3"></path><text fill="black" font-family="Arial" font-size="16" x="642" y="398">1</text><text fill="black" font-family="Arial" font-size="16" x="632" y="398">1</text><text fill="black" font-family="Arial" font-size="16" x="637" y="413">2</text><text fill="black" font-family="Arial" font-size="16" x="662" y="408">3</text><text fill="black" font-family="Arial" font-size="16" x="652" y="368">5</text><text fill="black" font-family="Arial" font-size="16" x="587" y="383">8</text><text fill="black" font-family="Arial" font-size="16" x="612" y="488">13</text><text fill="black" font-family="Arial" font-size="16" x="782" y="448">21</text><text fill="black" font-family="Arial" font-size="16" x="717" y="173">34</text><text fill="black" font-family="Arial" font-size="16" x="272" y="278">55</text><text fill="black" font-family="Arial" font-size="16" x="442" y="998">89</text></svg>